<svg width="169" height="60" viewBox="0 0 169 60" fill="none" xmlns="http://www.w3.org/2000/svg">
<g clip-path="url(#clip0_1_4)">
<path d="M47.6534 59.9997C44.6926 60.016 38.6609 59.6074 32.6506 55.7973C31.0581 54.7794 23.0463 49.7017 21.4841 40.8042C21.0171 38.1615 21.2506 35.9599 21.4654 34.1249C21.888 30.2846 22.8408 28.5756 25.3603 21.5998C27.3615 16.0551 28.3773 13.2232 28.9821 10.2396C29.6688 6.87139 29.9735 3.43649 29.8904 0C33.4395 2.18558 36.6229 4.91539 39.3241 8.08945C41.8343 11.0427 47.6371 17.8785 48.2186 27.908C48.9191 40.118 41.3883 48.714 39.6652 50.5863C35.8011 46.1376 33.2315 40.7147 32.2357 34.9073C31.2399 29.1003 31.8557 23.1312 34.0164 17.6497C32.6015 19.6714 27.6464 27.2659 28.9844 37.2883C30.3319 47.3928 37.5448 56.0518 47.6534 59.9997Z" fill="#7EA629"/>
<path d="M18.3854 36.0395C18.0238 32.0783 18.9527 28.1067 21.0334 24.7166C14.3759 21.9742 7.1921 20.7446 0.00122912 21.1166C-0.054813 27.9944 1.81793 32.9973 3.09055 35.7196C4.30482 38.3135 5.69418 41.2806 8.83723 43.8253C13.4654 47.5655 18.7707 47.8595 20.891 47.8595C19.6863 44.271 18.0739 40.832 16.0854 37.6107C13.7024 33.7495 10.8 30.2343 7.45951 27.1632C9.6726 28.4299 11.7712 29.8867 13.7316 31.5172C15.3919 32.9083 16.9474 34.4198 18.3854 36.0395Z" fill="#4F7302"/>
<path d="M68.4804 16.7638C69.8266 16.7638 70.9919 16.9881 71.9762 17.4368C72.975 17.8854 73.7422 18.5222 74.2778 19.3471C74.8134 20.1721 75.0812 21.1489 75.0812 22.2778C75.0812 23.3922 74.8134 24.369 74.2778 25.2084C73.7422 26.0334 72.975 26.6702 71.9762 27.1188C70.9919 27.553 69.8266 27.7701 68.4804 27.7701H65.4189V31.9598H61.9014V16.7638H68.4804ZM68.285 24.9045C69.3417 24.9045 70.1451 24.6802 70.6952 24.2316C71.2452 23.7684 71.5203 23.1172 71.5203 22.2778C71.5203 21.4239 71.2452 20.7727 70.6952 20.324C70.1451 19.8609 69.3417 19.6293 68.285 19.6293H65.4189V24.9045H68.285ZM84.8659 32.2203C83.2881 32.2203 81.8623 31.8802 80.5885 31.2C79.3291 30.5198 78.3375 29.5863 77.6138 28.3996C76.9045 27.1984 76.5498 25.8525 76.5498 24.3618C76.5498 22.8712 76.9045 21.5325 77.6138 20.3457C78.3375 19.1445 79.3291 18.2038 80.5885 17.5236C81.8623 16.8434 83.2881 16.5033 84.8659 16.5033C86.4437 16.5033 87.8623 16.8434 89.1217 17.5236C90.381 18.2038 91.3726 19.1445 92.0964 20.3457C92.8201 21.5325 93.182 22.8712 93.182 24.3618C93.182 25.8525 92.8201 27.1984 92.0964 28.3996C91.3726 29.5863 90.381 30.5198 89.1217 31.2C87.8623 31.8802 86.4437 32.2203 84.8659 32.2203ZM84.8659 29.2245C85.7634 29.2245 86.574 29.0219 87.2978 28.6167C88.0215 28.197 88.5861 27.6181 88.9914 26.88C89.4112 26.1419 89.6211 25.3025 89.6211 24.3618C89.6211 23.4211 89.4112 22.5817 88.9914 21.8436C88.5861 21.1055 88.0215 20.5339 87.2978 20.1286C86.574 19.7089 85.7634 19.4991 84.8659 19.4991C83.9685 19.4991 83.1578 19.7089 82.4341 20.1286C81.7103 20.5339 81.1385 21.1055 80.7187 21.8436C80.3134 22.5817 80.1108 23.4211 80.1108 24.3618C80.1108 25.3025 80.3134 26.1419 80.7187 26.88C81.1385 27.6181 81.7103 28.197 82.4341 28.6167C83.1578 29.0219 83.9685 29.2245 84.8659 29.2245ZM103.079 32.2203C101.53 32.2203 100.126 31.8874 98.8663 31.2217C97.6214 30.5415 96.6371 29.608 95.9133 28.4213C95.204 27.2201 94.8494 25.8669 94.8494 24.3618C94.8494 22.8567 95.204 21.5108 95.9133 20.324C96.6371 19.1228 97.6214 18.1893 98.8663 17.5236C100.126 16.8434 101.537 16.5033 103.1 16.5033C104.418 16.5033 105.605 16.7349 106.661 17.198C107.732 17.6611 108.63 18.3268 109.354 19.1952L107.096 21.2792C106.068 20.0925 104.794 19.4991 103.274 19.4991C102.333 19.4991 101.494 19.7089 100.755 20.1286C100.017 20.5339 99.4381 21.1055 99.0183 21.8436C98.613 22.5817 98.4103 23.4211 98.4103 24.3618C98.4103 25.3025 98.613 26.1419 99.0183 26.88C99.4381 27.6181 100.017 28.197 100.755 28.6167C101.494 29.0219 102.333 29.2245 103.274 29.2245C104.794 29.2245 106.068 28.6239 107.096 27.4227L109.354 29.5067C108.63 30.3895 107.732 31.0625 106.661 31.5256C105.59 31.9887 104.396 32.2203 103.079 32.2203ZM123.114 19.6293H118.251V31.9598H114.777V19.6293H109.934V16.7638H123.114V19.6293ZM132.363 32.2203C130.785 32.2203 129.36 31.8802 128.086 31.2C126.826 30.5198 125.835 29.5863 125.111 28.3996C124.402 27.1984 124.047 25.8525 124.047 24.3618C124.047 22.8712 124.402 21.5325 125.111 20.3457C125.835 19.1445 126.826 18.2038 128.086 17.5236C129.36 16.8434 130.785 16.5033 132.363 16.5033C133.941 16.5033 135.36 16.8434 136.619 17.5236C137.878 18.2038 138.87 19.1445 139.594 20.3457C140.317 21.5325 140.679 22.8712 140.679 24.3618C140.679 25.8525 140.317 27.1984 139.594 28.3996C138.87 29.5863 137.878 30.5198 136.619 31.2C135.36 31.8802 133.941 32.2203 132.363 32.2203ZM132.363 29.2245C133.261 29.2245 134.071 29.0219 134.795 28.6167C135.519 28.197 136.083 27.6181 136.489 26.88C136.908 26.1419 137.118 25.3025 137.118 24.3618C137.118 23.4211 136.908 22.5817 136.489 21.8436C136.083 21.1055 135.519 20.5339 134.795 20.1286C134.071 19.7089 133.261 19.4991 132.363 19.4991C131.466 19.4991 130.655 19.7089 129.931 20.1286C129.208 20.5339 128.636 21.1055 128.216 21.8436C127.811 22.5817 127.608 23.4211 127.608 24.3618C127.608 25.3025 127.811 26.1419 128.216 26.88C128.636 27.6181 129.208 28.197 129.931 28.6167C130.655 29.0219 131.466 29.2245 132.363 29.2245ZM149.273 25.838H146.841V31.9598H143.345V16.7638H146.841V22.9073H149.36L153.355 16.7638H157.068L152.096 24.1013L157.22 31.9598H153.225L149.273 25.838ZM77.5782 49.5968V55.6101H74.3212V52.4623H63.595V55.6101H60.3381L60.3598 49.5968H60.9677C61.8797 49.5678 62.5238 48.9021 62.9002 47.5996C63.2766 46.2971 63.5082 44.4374 63.595 42.0205L63.7687 37.2663H75.4503V49.5968H77.5782ZM66.7 42.3461C66.6276 44.1552 66.4756 45.6748 66.244 46.9049C66.0124 48.1206 65.6577 49.0179 65.1801 49.5968H71.9762V40.1319H66.7651L66.7 42.3461ZM87.1983 52.7228C85.6205 52.7228 84.1946 52.3827 82.9208 51.7025C81.6614 51.0223 80.6699 50.0888 79.9461 48.9021C79.2368 47.7009 78.8822 46.355 78.8822 44.8643C78.8822 43.3737 79.2368 42.035 79.9461 40.8482C80.6699 39.647 81.6614 38.7063 82.9208 38.0261C84.1946 37.3459 85.6205 37.0058 87.1983 37.0058C88.7761 37.0058 90.1947 37.3459 91.454 38.0261C92.7134 38.7063 93.7049 39.647 94.4287 40.8482C95.1525 42.035 95.5143 43.3737 95.5143 44.8643C95.5143 46.355 95.1525 47.7009 94.4287 48.9021C93.7049 50.0888 92.7134 51.0223 91.454 51.7025C90.1947 52.3827 88.7761 52.7228 87.1983 52.7228ZM87.1983 49.727C88.0957 49.727 88.9064 49.5244 89.6301 49.1192C90.3539 48.6995 90.9184 48.1206 91.3237 47.3825C91.7435 46.6444 91.9534 45.805 91.9534 44.8643C91.9534 43.9236 91.7435 43.0842 91.3237 42.3461C90.9184 41.608 90.3539 41.0364 89.6301 40.6312C88.9064 40.2115 88.0957 40.0016 87.1983 40.0016C86.3008 40.0016 85.4902 40.2115 84.7664 40.6312C84.0426 41.0364 83.4709 41.608 83.0511 42.3461C82.6458 43.0842 82.4431 43.9236 82.4431 44.8643C82.4431 45.805 82.6458 46.6444 83.0511 47.3825C83.4709 48.1206 84.0426 48.6995 84.7664 49.1192C85.4902 49.5244 86.3008 49.727 87.1983 49.727ZM98.224 37.2663H110.492V40.0667H101.72V43.1928H105.932C107.77 43.1928 109.167 43.5763 110.123 44.3433C111.093 45.1104 111.577 46.2175 111.577 47.6647C111.577 49.1843 111.042 50.3638 109.971 51.2032C108.9 52.0426 107.387 52.4623 105.433 52.4623H98.224V37.2663ZM105.237 49.8573C106.135 49.8573 106.822 49.6836 107.3 49.3363C107.778 48.9745 108.017 48.4535 108.017 47.7733C108.017 46.4418 107.09 45.7761 105.237 45.7761H101.72V49.8573H105.237ZM120.834 37.2663C122.18 37.2663 123.345 37.4907 124.329 37.9393C125.328 38.3879 126.095 39.0247 126.631 39.8496C127.166 40.6746 127.434 41.6515 127.434 42.7803C127.434 43.8947 127.166 44.8716 126.631 45.711C126.095 46.5359 125.328 47.1727 124.329 47.6213C123.345 48.0555 122.18 48.2726 120.834 48.2726H117.772V52.4623H114.254V37.2663H120.834ZM120.638 45.407C121.695 45.407 122.498 45.1827 123.048 44.7341C123.598 44.271 123.873 43.6197 123.873 42.7803C123.873 41.9264 123.598 41.2752 123.048 40.8265C122.498 40.3634 121.695 40.1319 120.638 40.1319H117.772V45.407H120.638ZM139.283 49.206H132.227L130.88 52.4623H127.276L134.05 37.2663H137.524L144.321 52.4623H140.629L139.283 49.206ZM138.176 46.5359L135.766 40.718L133.356 46.5359H138.176Z" fill="white"/>
</g>
<defs>
<clipPath id="clip0_1_4">
<rect width="168.276" height="60" fill="white"/>
</clipPath>
</defs>
</svg>
